<?xml version="1.0" encoding="UTF-8"?>
<svg xmlns="http://www.w3.org/2000/svg" viewBox="0 0 512 512">
  <defs>
    <style>
      .blue {
        fill: #3498db;
      }
      .dark-blue {
        fill: #2c3e50;
      }
    </style>
  </defs>
  <circle class="dark-blue" cx="256" cy="256" r="256"/>
  <g transform="translate(100, 100) scale(0.6)">
    <path class="blue" d="M64 64c0-17.7 14.3-32 32-32H416c17.7 0 32 14.3 32 32V96h32c17.7 0 32 14.3 32 32V352c0 17.7-14.3 32-32 32H384v64c0 17.7-14.3 32-32 32H96c-17.7 0-32-14.3-32-32V384H32c-17.7 0-32-14.3-32-32V128c0-17.7 14.3-32 32-32H64V64zm384 64H64V352H448V128zM400 464V400H96v64H400zM171.3 164.3L304.7 124.7c6.4-1.9 13.1 1.7 15 8.1l32 104c1.9 6.4-1.7 13.1-8.1 15l-133.4 39.6c-6.4 1.9-13.1-1.7-15-8.1l-32-104c-1.9-6.4 1.7-13.1 8.1-15zM128 304c0-8.8 7.2-16 16-16h224c8.8 0 16 7.2 16 16s-7.2 16-16 16H144c-8.8 0-16-7.2-16-16z"/>
  </g>
</svg>